# xmcd CD database file
#
# Track frame offsets:
#	150
#	27935
#	48759
#	74299
#	105736
#	134181
#	147493
#	171873
#	187421
#	214076
#	232928
#	264396
#	302453
#
# Disc length: 4364 seconds
#
# Revision: 0
# Processed by: cddbd v1.5.1PL0 Copyright (c) Steve Scherf et al.
# Submitted via: CDex 1.51
#
DISCID=c1110a0d
DTITLE=Various Artist - Blues Feelin'
DYEAR=2003
DGENRE=Blues
TTITLE0=Gary Moore - Still Got The Blues (For You)
TTITLE1=Stevie Ray Vaughan And Double Trouble - The Sky Is Crying
TTITLE2=John Lee Hooker - The Healer
TTITLE3=Albert Collins - Lights Are On But Nobody's Home
TTITLE4=Johnny Winter - Life Is Hard
TTITLE5=Buddy Guy - I Need Your Love So Bad
TTITLE6=Muddy Waters - Sad Sad Day
TTITLE7=The Gregg Allman Band - Demons
TTITLE8=Roy Buchanan - The Messiah Will Come Again
TTITLE9=B. B. King - The Lowdown
TTITLE10=The Allman Brothers Band - Get On With Your Life
TTITLE11=Buddy Gay - Five Long Years
TTITLE12=Robert Cray - Albert Collins - The Dream
EXTD=YEAR: 2003
EXTT0=
EXTT1=
EXTT2=
EXTT3=
EXTT4=
EXTT5=
EXTT6=
EXTT7=
EXTT8=
EXTT9=
EXTT10=
EXTT11=
EXTT12=
PLAYORDER=
